<svg xmlns="http://www.w3.org/2000/svg" width="32" height="32" viewBox="0 0 32 32"><defs><radialGradient id="bgGradient" cx="50%" cy="30%"><stop offset="0%" style="stop-color:#667eea;stop-opacity:1"/><stop offset="100%" style="stop-color:#764ba2;stop-opacity:1"/></radialGradient><linearGradient id="textGradient" x1="0%" x2="100%" y1="0%" y2="100%"><stop offset="0%" style="stop-color:#fff;stop-opacity:.9"/><stop offset="100%" style="stop-color:#f7fafc;stop-opacity:1"/></linearGradient></defs><circle cx="16" cy="16" r="16" fill="url(#bgGradient)"/><path fill="url(#textGradient)" d="M12 6c-4.4 0-8 3.6-8 8s3.6 8 8 8c1.5 0 2.9-0.4 4.1-1.2-2.4 0.8-5.1-0.2-6.7-2.8-1.6-2.6-1.1-6 1.2-8.1C11.2 6.3 11.6 6.1 12 6z" opacity=".8"/><circle cx="22" cy="10" r="2" fill="url(#textGradient)" opacity=".7"/><circle cx="24" cy="16" r="1.5" fill="url(#textGradient)" opacity=".6"/><circle cx="22" cy="22" r="1.5" fill="url(#textGradient)" opacity=".6"/><path fill="url(#textGradient)" d="M8 16c0-1 1-2 2-2s2 1 2 2-1 2-2 2-2-1-2-2z M16 12c0-0.5 0.5-1 1-1s1 0.5 1 1-0.5 1-1 1-1-0.5-1-1z" opacity=".5"/></svg>